<mxfile host="app.diagrams.net" agent="Mozilla/5.0 (Macintosh; Intel Mac OS X 10_15_7) AppleWebKit/537.36 (KHTML, like Gecko) Chrome/128.0.0.0 Safari/537.36" version="24.7.7">
  <diagram name="Page-1" id="gxjPSzDJ1Ycf-JWV7owq">
    <mxGraphModel dx="1224" dy="1776" grid="1" gridSize="10" guides="1" tooltips="1" connect="1" arrows="1" fold="1" page="1" pageScale="1" pageWidth="850" pageHeight="1100" math="0" shadow="0">
      <root>
        <mxCell id="0" />
        <mxCell id="1" parent="0" />
        <mxCell id="qCUGJj3Zq9uQHX7W2p98-13" value="" style="rounded=0;whiteSpace=wrap;html=1;fillColor=#f8cecc;strokeColor=#b85450;strokeWidth=2;fontSize=14;" vertex="1" parent="1">
          <mxGeometry x="400" width="440" height="480" as="geometry" />
        </mxCell>
        <mxCell id="qCUGJj3Zq9uQHX7W2p98-1" value="c1:&lt;div&gt;Carpet reference&lt;/div&gt;" style="rounded=0;whiteSpace=wrap;html=1;fillColor=#dae8fc;strokeColor=#6c8ebf;strokeWidth=2;fontSize=14;" vertex="1" parent="1">
          <mxGeometry x="444" y="40" width="116" height="40" as="geometry" />
        </mxCell>
        <mxCell id="qCUGJj3Zq9uQHX7W2p98-2" value="c2:&lt;div style=&quot;font-size: 14px;&quot;&gt;Carpet reference&lt;/div&gt;" style="rounded=0;whiteSpace=wrap;html=1;fillColor=#dae8fc;strokeColor=#6c8ebf;strokeWidth=2;fontSize=14;" vertex="1" parent="1">
          <mxGeometry x="440" y="200" width="120" height="40" as="geometry" />
        </mxCell>
        <mxCell id="qCUGJj3Zq9uQHX7W2p98-3" value="c3:&lt;div style=&quot;font-size: 14px;&quot;&gt;Carpet reference&lt;/div&gt;" style="rounded=0;whiteSpace=wrap;html=1;fillColor=#dae8fc;strokeColor=#6c8ebf;strokeWidth=2;fontSize=14;" vertex="1" parent="1">
          <mxGeometry x="440" y="360" width="120" height="40" as="geometry" />
        </mxCell>
        <mxCell id="qCUGJj3Zq9uQHX7W2p98-4" value="length = 10" style="rounded=0;whiteSpace=wrap;html=1;fillColor=#d5e8d4;strokeColor=#82b366;strokeWidth=2;fontSize=14;" vertex="1" parent="1">
          <mxGeometry x="680" y="40" width="120" height="40" as="geometry" />
        </mxCell>
        <mxCell id="qCUGJj3Zq9uQHX7W2p98-5" value="breadth = 20" style="rounded=0;whiteSpace=wrap;html=1;fillColor=#d5e8d4;strokeColor=#82b366;strokeWidth=2;fontSize=14;" vertex="1" parent="1">
          <mxGeometry x="680" y="80" width="120" height="40" as="geometry" />
        </mxCell>
        <mxCell id="qCUGJj3Zq9uQHX7W2p98-6" value="length = 60" style="rounded=0;whiteSpace=wrap;html=1;fillColor=#d5e8d4;strokeColor=#82b366;strokeWidth=2;fontSize=14;" vertex="1" parent="1">
          <mxGeometry x="680" y="200" width="120" height="40" as="geometry" />
        </mxCell>
        <mxCell id="qCUGJj3Zq9uQHX7W2p98-7" value="breadth = 40" style="rounded=0;whiteSpace=wrap;html=1;fillColor=#d5e8d4;strokeColor=#82b366;strokeWidth=2;fontSize=14;" vertex="1" parent="1">
          <mxGeometry x="680" y="240" width="120" height="40" as="geometry" />
        </mxCell>
        <mxCell id="qCUGJj3Zq9uQHX7W2p98-8" value="length = 20" style="rounded=0;whiteSpace=wrap;html=1;fillColor=#d5e8d4;strokeColor=#82b366;strokeWidth=2;fontSize=14;" vertex="1" parent="1">
          <mxGeometry x="680" y="360" width="120" height="40" as="geometry" />
        </mxCell>
        <mxCell id="qCUGJj3Zq9uQHX7W2p98-9" value="breadth = 30" style="rounded=0;whiteSpace=wrap;html=1;fillColor=#d5e8d4;strokeColor=#82b366;strokeWidth=2;fontSize=14;" vertex="1" parent="1">
          <mxGeometry x="680" y="400" width="120" height="40" as="geometry" />
        </mxCell>
        <mxCell id="qCUGJj3Zq9uQHX7W2p98-10" value="" style="endArrow=classic;html=1;rounded=0;entryX=0;entryY=0.5;entryDx=0;entryDy=0;strokeWidth=2;fontSize=14;" edge="1" parent="1" target="qCUGJj3Zq9uQHX7W2p98-4">
          <mxGeometry width="50" height="50" relative="1" as="geometry">
            <mxPoint x="550" y="60" as="sourcePoint" />
            <mxPoint x="600" y="10" as="targetPoint" />
          </mxGeometry>
        </mxCell>
        <mxCell id="qCUGJj3Zq9uQHX7W2p98-11" value="" style="endArrow=classic;html=1;rounded=0;entryX=0;entryY=0.5;entryDx=0;entryDy=0;strokeWidth=2;fontSize=14;" edge="1" parent="1">
          <mxGeometry width="50" height="50" relative="1" as="geometry">
            <mxPoint x="550" y="219.5" as="sourcePoint" />
            <mxPoint x="680" y="219.5" as="targetPoint" />
          </mxGeometry>
        </mxCell>
        <mxCell id="qCUGJj3Zq9uQHX7W2p98-12" value="" style="endArrow=classic;html=1;rounded=0;entryX=0;entryY=0.5;entryDx=0;entryDy=0;strokeWidth=2;fontSize=14;" edge="1" parent="1">
          <mxGeometry width="50" height="50" relative="1" as="geometry">
            <mxPoint x="550" y="379.5" as="sourcePoint" />
            <mxPoint x="680" y="379.5" as="targetPoint" />
          </mxGeometry>
        </mxCell>
        <mxCell id="qCUGJj3Zq9uQHX7W2p98-14" value="&lt;span style=&quot;color: rgb(255, 255, 255); font-family: &amp;quot;Cascadia Mono&amp;quot;, Consolas, ui-monospace, Menlo, Monaco, monospace; font-size: 18px; font-style: normal; font-variant-ligatures: normal; font-variant-caps: normal; font-weight: 400; letter-spacing: normal; orphans: 2; text-align: start; text-indent: 0px; text-transform: none; widows: 2; word-spacing: 0px; -webkit-text-stroke-width: 0px; white-space: pre-wrap; background-color: rgb(41, 41, 41); text-decoration-thickness: initial; text-decoration-style: initial; text-decoration-color: initial; float: none; display: inline !important;&quot;&gt;Carpet c1 = new Carpet(10, 20);&lt;/span&gt;&lt;br style=&quot;-webkit-font-smoothing: antialiased; box-sizing: border-box; color: rgb(255, 255, 255); font-family: &amp;quot;Cascadia Mono&amp;quot;, Consolas, ui-monospace, Menlo, Monaco, monospace; font-size: 18px; font-style: normal; font-variant-ligatures: normal; font-variant-caps: normal; font-weight: 400; letter-spacing: normal; orphans: 2; text-align: start; text-indent: 0px; text-transform: none; widows: 2; word-spacing: 0px; -webkit-text-stroke-width: 0px; white-space: pre-wrap; text-decoration-thickness: initial; text-decoration-style: initial; text-decoration-color: initial;&quot;&gt;&lt;span style=&quot;color: rgb(255, 255, 255); font-family: &amp;quot;Cascadia Mono&amp;quot;, Consolas, ui-monospace, Menlo, Monaco, monospace; font-size: 18px; font-style: normal; font-variant-ligatures: normal; font-variant-caps: normal; font-weight: 400; letter-spacing: normal; orphans: 2; text-align: start; text-indent: 0px; text-transform: none; widows: 2; word-spacing: 0px; -webkit-text-stroke-width: 0px; white-space: pre-wrap; background-color: rgb(41, 41, 41); text-decoration-thickness: initial; text-decoration-style: initial; text-decoration-color: initial; float: none; display: inline !important;&quot;&gt;Carpet c2 = new Carpet(60, 40);&lt;/span&gt;&lt;br style=&quot;-webkit-font-smoothing: antialiased; box-sizing: border-box; color: rgb(255, 255, 255); font-family: &amp;quot;Cascadia Mono&amp;quot;, Consolas, ui-monospace, Menlo, Monaco, monospace; font-size: 18px; font-style: normal; font-variant-ligatures: normal; font-variant-caps: normal; font-weight: 400; letter-spacing: normal; orphans: 2; text-align: start; text-indent: 0px; text-transform: none; widows: 2; word-spacing: 0px; -webkit-text-stroke-width: 0px; white-space: pre-wrap; text-decoration-thickness: initial; text-decoration-style: initial; text-decoration-color: initial;&quot;&gt;&lt;span style=&quot;color: rgb(255, 255, 255); font-family: &amp;quot;Cascadia Mono&amp;quot;, Consolas, ui-monospace, Menlo, Monaco, monospace; font-size: 18px; font-style: normal; font-variant-ligatures: normal; font-variant-caps: normal; font-weight: 400; letter-spacing: normal; orphans: 2; text-align: start; text-indent: 0px; text-transform: none; widows: 2; word-spacing: 0px; -webkit-text-stroke-width: 0px; white-space: pre-wrap; background-color: rgb(41, 41, 41); text-decoration-thickness: initial; text-decoration-style: initial; text-decoration-color: initial; float: none; display: inline !important;&quot;&gt;Carpet c3 = new Carpet(20, 30);&lt;/span&gt;" style="text;whiteSpace=wrap;html=1;fontSize=18;" vertex="1" parent="1">
          <mxGeometry x="30" y="70" width="360" height="240" as="geometry" />
        </mxCell>
        <mxCell id="qCUGJj3Zq9uQHX7W2p98-15" value="&lt;span style=&quot;color: rgb(255, 255, 255); font-family: &amp;quot;Cascadia Mono&amp;quot;, Consolas, ui-monospace, Menlo, Monaco, monospace; font-size: 18px; font-style: normal; font-variant-ligatures: normal; font-variant-caps: normal; font-weight: 400; letter-spacing: normal; orphans: 2; text-align: start; text-indent: 0px; text-transform: none; widows: 2; word-spacing: 0px; -webkit-text-stroke-width: 0px; white-space: pre-wrap; background-color: rgb(41, 41, 41); text-decoration-thickness: initial; text-decoration-style: initial; text-decoration-color: initial; float: none; display: inline !important;&quot;&gt;c3 = c1;&lt;/span&gt;&lt;br style=&quot;-webkit-font-smoothing: antialiased; box-sizing: border-box; color: rgb(255, 255, 255); font-family: &amp;quot;Cascadia Mono&amp;quot;, Consolas, ui-monospace, Menlo, Monaco, monospace; font-size: 18px; font-style: normal; font-variant-ligatures: normal; font-variant-caps: normal; font-weight: 400; letter-spacing: normal; orphans: 2; text-align: start; text-indent: 0px; text-transform: none; widows: 2; word-spacing: 0px; -webkit-text-stroke-width: 0px; white-space: pre-wrap; text-decoration-thickness: initial; text-decoration-style: initial; text-decoration-color: initial;&quot;&gt;" style="text;whiteSpace=wrap;html=1;fontSize=18;" vertex="1" parent="1">
          <mxGeometry x="270" y="630" width="100" height="40" as="geometry" />
        </mxCell>
        <mxCell id="qCUGJj3Zq9uQHX7W2p98-16" value="" style="rounded=0;whiteSpace=wrap;html=1;fillColor=#f8cecc;strokeColor=#b85450;strokeWidth=2;fontSize=14;" vertex="1" parent="1">
          <mxGeometry x="400" y="520" width="440" height="440" as="geometry" />
        </mxCell>
        <mxCell id="qCUGJj3Zq9uQHX7W2p98-17" value="c1:&lt;div&gt;Carpet reference&lt;/div&gt;" style="rounded=0;whiteSpace=wrap;html=1;fillColor=#dae8fc;strokeColor=#6c8ebf;strokeWidth=2;fontSize=14;" vertex="1" parent="1">
          <mxGeometry x="444" y="560" width="116" height="40" as="geometry" />
        </mxCell>
        <mxCell id="qCUGJj3Zq9uQHX7W2p98-18" value="c2:&lt;div style=&quot;font-size: 14px;&quot;&gt;Carpet reference&lt;/div&gt;" style="rounded=0;whiteSpace=wrap;html=1;fillColor=#dae8fc;strokeColor=#6c8ebf;strokeWidth=2;fontSize=14;" vertex="1" parent="1">
          <mxGeometry x="440" y="720" width="120" height="40" as="geometry" />
        </mxCell>
        <mxCell id="qCUGJj3Zq9uQHX7W2p98-19" value="c3:&lt;div style=&quot;font-size: 14px;&quot;&gt;Carpet reference&lt;/div&gt;" style="rounded=0;whiteSpace=wrap;html=1;fillColor=#dae8fc;strokeColor=#6c8ebf;strokeWidth=2;fontSize=14;" vertex="1" parent="1">
          <mxGeometry x="440" y="880" width="120" height="40" as="geometry" />
        </mxCell>
        <mxCell id="qCUGJj3Zq9uQHX7W2p98-20" value="length = 10" style="rounded=0;whiteSpace=wrap;html=1;fillColor=#d5e8d4;strokeColor=#82b366;strokeWidth=2;fontSize=14;" vertex="1" parent="1">
          <mxGeometry x="680" y="560" width="120" height="40" as="geometry" />
        </mxCell>
        <mxCell id="qCUGJj3Zq9uQHX7W2p98-21" value="breadth = 20" style="rounded=0;whiteSpace=wrap;html=1;fillColor=#d5e8d4;strokeColor=#82b366;strokeWidth=2;fontSize=14;" vertex="1" parent="1">
          <mxGeometry x="680" y="600" width="120" height="40" as="geometry" />
        </mxCell>
        <mxCell id="qCUGJj3Zq9uQHX7W2p98-22" value="length = 60" style="rounded=0;whiteSpace=wrap;html=1;fillColor=#d5e8d4;strokeColor=#82b366;strokeWidth=2;fontSize=14;" vertex="1" parent="1">
          <mxGeometry x="680" y="720" width="120" height="40" as="geometry" />
        </mxCell>
        <mxCell id="qCUGJj3Zq9uQHX7W2p98-23" value="breadth = 40" style="rounded=0;whiteSpace=wrap;html=1;fillColor=#d5e8d4;strokeColor=#82b366;strokeWidth=2;fontSize=14;" vertex="1" parent="1">
          <mxGeometry x="680" y="760" width="120" height="40" as="geometry" />
        </mxCell>
        <mxCell id="qCUGJj3Zq9uQHX7W2p98-26" value="" style="endArrow=classic;html=1;rounded=0;entryX=0;entryY=0.5;entryDx=0;entryDy=0;strokeWidth=2;fontSize=14;" edge="1" parent="1" target="qCUGJj3Zq9uQHX7W2p98-20">
          <mxGeometry width="50" height="50" relative="1" as="geometry">
            <mxPoint x="550" y="580" as="sourcePoint" />
            <mxPoint x="600" y="530" as="targetPoint" />
          </mxGeometry>
        </mxCell>
        <mxCell id="qCUGJj3Zq9uQHX7W2p98-27" value="" style="endArrow=classic;html=1;rounded=0;entryX=0;entryY=0.5;entryDx=0;entryDy=0;strokeWidth=2;fontSize=14;" edge="1" parent="1">
          <mxGeometry width="50" height="50" relative="1" as="geometry">
            <mxPoint x="550" y="739.5" as="sourcePoint" />
            <mxPoint x="680" y="739.5" as="targetPoint" />
          </mxGeometry>
        </mxCell>
        <mxCell id="qCUGJj3Zq9uQHX7W2p98-28" value="" style="endArrow=classic;html=1;rounded=0;entryX=0;entryY=0.75;entryDx=0;entryDy=0;strokeWidth=2;fontSize=14;" edge="1" parent="1" target="qCUGJj3Zq9uQHX7W2p98-20">
          <mxGeometry width="50" height="50" relative="1" as="geometry">
            <mxPoint x="550" y="899.5" as="sourcePoint" />
            <mxPoint x="680" y="899.5" as="targetPoint" />
          </mxGeometry>
        </mxCell>
        <mxCell id="qCUGJj3Zq9uQHX7W2p98-29" value="&lt;span style=&quot;color: rgb(255, 255, 255); font-family: &amp;quot;Cascadia Mono&amp;quot;, Consolas, ui-monospace, Menlo, Monaco, monospace; font-size: 18px; font-style: normal; font-variant-ligatures: normal; font-variant-caps: normal; font-weight: 400; letter-spacing: normal; orphans: 2; text-align: start; text-indent: 0px; text-transform: none; widows: 2; word-spacing: 0px; -webkit-text-stroke-width: 0px; white-space: pre-wrap; background-color: rgb(41, 41, 41); text-decoration-thickness: initial; text-decoration-style: initial; text-decoration-color: initial; float: none; display: inline !important;&quot;&gt;c2 = c3;&lt;/span&gt;" style="text;whiteSpace=wrap;html=1;fontSize=18;" vertex="1" parent="1">
          <mxGeometry x="270" y="1110" width="100" height="40" as="geometry" />
        </mxCell>
        <mxCell id="qCUGJj3Zq9uQHX7W2p98-30" value="" style="rounded=0;whiteSpace=wrap;html=1;fillColor=#f8cecc;strokeColor=#b85450;strokeWidth=2;fontSize=14;" vertex="1" parent="1">
          <mxGeometry x="400" y="1000" width="440" height="440" as="geometry" />
        </mxCell>
        <mxCell id="qCUGJj3Zq9uQHX7W2p98-31" value="c1:&lt;div&gt;Carpet reference&lt;/div&gt;" style="rounded=0;whiteSpace=wrap;html=1;fillColor=#dae8fc;strokeColor=#6c8ebf;strokeWidth=2;fontSize=14;" vertex="1" parent="1">
          <mxGeometry x="444" y="1040" width="116" height="40" as="geometry" />
        </mxCell>
        <mxCell id="qCUGJj3Zq9uQHX7W2p98-32" value="c2:&lt;div style=&quot;font-size: 14px;&quot;&gt;Carpet reference&lt;/div&gt;" style="rounded=0;whiteSpace=wrap;html=1;fillColor=#dae8fc;strokeColor=#6c8ebf;strokeWidth=2;fontSize=14;" vertex="1" parent="1">
          <mxGeometry x="440" y="1200" width="120" height="40" as="geometry" />
        </mxCell>
        <mxCell id="qCUGJj3Zq9uQHX7W2p98-33" value="c3:&lt;div style=&quot;font-size: 14px;&quot;&gt;Carpet reference&lt;/div&gt;" style="rounded=0;whiteSpace=wrap;html=1;fillColor=#dae8fc;strokeColor=#6c8ebf;strokeWidth=2;fontSize=14;" vertex="1" parent="1">
          <mxGeometry x="440" y="1360" width="120" height="40" as="geometry" />
        </mxCell>
        <mxCell id="qCUGJj3Zq9uQHX7W2p98-34" value="length = 10" style="rounded=0;whiteSpace=wrap;html=1;fillColor=#d5e8d4;strokeColor=#82b366;strokeWidth=2;fontSize=14;" vertex="1" parent="1">
          <mxGeometry x="680" y="1040" width="120" height="40" as="geometry" />
        </mxCell>
        <mxCell id="qCUGJj3Zq9uQHX7W2p98-35" value="breadth = 20" style="rounded=0;whiteSpace=wrap;html=1;fillColor=#d5e8d4;strokeColor=#82b366;strokeWidth=2;fontSize=14;" vertex="1" parent="1">
          <mxGeometry x="680" y="1080" width="120" height="40" as="geometry" />
        </mxCell>
        <mxCell id="qCUGJj3Zq9uQHX7W2p98-38" value="" style="endArrow=classic;html=1;rounded=0;entryX=0;entryY=0.5;entryDx=0;entryDy=0;strokeWidth=2;fontSize=14;" edge="1" parent="1" target="qCUGJj3Zq9uQHX7W2p98-34">
          <mxGeometry width="50" height="50" relative="1" as="geometry">
            <mxPoint x="550" y="1060" as="sourcePoint" />
            <mxPoint x="600" y="1010" as="targetPoint" />
          </mxGeometry>
        </mxCell>
        <mxCell id="qCUGJj3Zq9uQHX7W2p98-39" value="" style="endArrow=classic;html=1;rounded=0;entryX=0;entryY=0.5;entryDx=0;entryDy=0;strokeWidth=2;fontSize=14;" edge="1" parent="1" target="qCUGJj3Zq9uQHX7W2p98-34">
          <mxGeometry width="50" height="50" relative="1" as="geometry">
            <mxPoint x="550" y="1219.5" as="sourcePoint" />
            <mxPoint x="680" y="1219.5" as="targetPoint" />
          </mxGeometry>
        </mxCell>
        <mxCell id="qCUGJj3Zq9uQHX7W2p98-40" value="" style="endArrow=classic;html=1;rounded=0;entryX=0;entryY=0.75;entryDx=0;entryDy=0;strokeWidth=2;fontSize=14;" edge="1" parent="1" target="qCUGJj3Zq9uQHX7W2p98-34">
          <mxGeometry width="50" height="50" relative="1" as="geometry">
            <mxPoint x="550" y="1379.5" as="sourcePoint" />
            <mxPoint x="680" y="1379.5" as="targetPoint" />
          </mxGeometry>
        </mxCell>
        <mxCell id="qCUGJj3Zq9uQHX7W2p98-41" value="&lt;span style=&quot;color: rgb(255, 255, 255); font-family: &amp;quot;Cascadia Mono&amp;quot;, Consolas, ui-monospace, Menlo, Monaco, monospace; font-size: 18px; white-space-collapse: preserve; background-color: rgb(41, 41, 41);&quot;&gt;c1 = new Carpet(5, 5);&lt;/span&gt;" style="text;whiteSpace=wrap;html=1;fontSize=18;" vertex="1" parent="1">
          <mxGeometry x="120" y="1590" width="260" height="40" as="geometry" />
        </mxCell>
        <mxCell id="qCUGJj3Zq9uQHX7W2p98-42" value="" style="rounded=0;whiteSpace=wrap;html=1;fillColor=#f8cecc;strokeColor=#b85450;strokeWidth=2;fontSize=14;" vertex="1" parent="1">
          <mxGeometry x="400" y="1480" width="440" height="440" as="geometry" />
        </mxCell>
        <mxCell id="qCUGJj3Zq9uQHX7W2p98-43" value="c1:&lt;div&gt;Carpet reference&lt;/div&gt;" style="rounded=0;whiteSpace=wrap;html=1;fillColor=#dae8fc;strokeColor=#6c8ebf;strokeWidth=2;fontSize=14;" vertex="1" parent="1">
          <mxGeometry x="444" y="1520" width="116" height="40" as="geometry" />
        </mxCell>
        <mxCell id="qCUGJj3Zq9uQHX7W2p98-44" value="c2:&lt;div style=&quot;font-size: 14px;&quot;&gt;Carpet reference&lt;/div&gt;" style="rounded=0;whiteSpace=wrap;html=1;fillColor=#dae8fc;strokeColor=#6c8ebf;strokeWidth=2;fontSize=14;" vertex="1" parent="1">
          <mxGeometry x="440" y="1680" width="120" height="40" as="geometry" />
        </mxCell>
        <mxCell id="qCUGJj3Zq9uQHX7W2p98-45" value="c3:&lt;div style=&quot;font-size: 14px;&quot;&gt;Carpet reference&lt;/div&gt;" style="rounded=0;whiteSpace=wrap;html=1;fillColor=#dae8fc;strokeColor=#6c8ebf;strokeWidth=2;fontSize=14;" vertex="1" parent="1">
          <mxGeometry x="440" y="1840" width="120" height="40" as="geometry" />
        </mxCell>
        <mxCell id="qCUGJj3Zq9uQHX7W2p98-46" value="length = 5" style="rounded=0;whiteSpace=wrap;html=1;fillColor=#d5e8d4;strokeColor=#82b366;strokeWidth=2;fontSize=14;" vertex="1" parent="1">
          <mxGeometry x="680" y="1520" width="120" height="40" as="geometry" />
        </mxCell>
        <mxCell id="qCUGJj3Zq9uQHX7W2p98-47" value="breadth = 5" style="rounded=0;whiteSpace=wrap;html=1;fillColor=#d5e8d4;strokeColor=#82b366;strokeWidth=2;fontSize=14;" vertex="1" parent="1">
          <mxGeometry x="680" y="1560" width="120" height="40" as="geometry" />
        </mxCell>
        <mxCell id="qCUGJj3Zq9uQHX7W2p98-48" value="" style="endArrow=classic;html=1;rounded=0;entryX=0;entryY=0.5;entryDx=0;entryDy=0;strokeWidth=2;fontSize=14;" edge="1" parent="1" target="qCUGJj3Zq9uQHX7W2p98-46">
          <mxGeometry width="50" height="50" relative="1" as="geometry">
            <mxPoint x="550" y="1540" as="sourcePoint" />
            <mxPoint x="600" y="1490" as="targetPoint" />
          </mxGeometry>
        </mxCell>
        <mxCell id="qCUGJj3Zq9uQHX7W2p98-49" value="" style="endArrow=classic;html=1;rounded=0;entryX=0;entryY=0.5;entryDx=0;entryDy=0;strokeWidth=2;fontSize=14;" edge="1" parent="1" target="qCUGJj3Zq9uQHX7W2p98-52">
          <mxGeometry width="50" height="50" relative="1" as="geometry">
            <mxPoint x="550" y="1699.5" as="sourcePoint" />
            <mxPoint x="680" y="1699.5" as="targetPoint" />
          </mxGeometry>
        </mxCell>
        <mxCell id="qCUGJj3Zq9uQHX7W2p98-50" value="" style="endArrow=classic;html=1;rounded=0;entryX=0;entryY=0.75;entryDx=0;entryDy=0;strokeWidth=2;fontSize=14;" edge="1" parent="1" target="qCUGJj3Zq9uQHX7W2p98-52">
          <mxGeometry width="50" height="50" relative="1" as="geometry">
            <mxPoint x="550" y="1859.5" as="sourcePoint" />
            <mxPoint x="680" y="1859.5" as="targetPoint" />
          </mxGeometry>
        </mxCell>
        <mxCell id="qCUGJj3Zq9uQHX7W2p98-52" value="length = 10" style="rounded=0;whiteSpace=wrap;html=1;fillColor=#d5e8d4;strokeColor=#82b366;strokeWidth=2;fontSize=14;" vertex="1" parent="1">
          <mxGeometry x="680" y="1680" width="120" height="40" as="geometry" />
        </mxCell>
        <mxCell id="qCUGJj3Zq9uQHX7W2p98-53" value="breadth = 20" style="rounded=0;whiteSpace=wrap;html=1;fillColor=#d5e8d4;strokeColor=#82b366;strokeWidth=2;fontSize=14;" vertex="1" parent="1">
          <mxGeometry x="680" y="1720" width="120" height="40" as="geometry" />
        </mxCell>
        <mxCell id="qCUGJj3Zq9uQHX7W2p98-55" value="" style="rounded=0;whiteSpace=wrap;html=1;fillColor=#f8cecc;strokeColor=#b85450;strokeWidth=2;fontSize=14;" vertex="1" parent="1">
          <mxGeometry x="400" y="1960" width="440" height="440" as="geometry" />
        </mxCell>
        <mxCell id="qCUGJj3Zq9uQHX7W2p98-56" value="c1:&lt;div&gt;Carpet reference&lt;/div&gt;" style="rounded=0;whiteSpace=wrap;html=1;fillColor=#dae8fc;strokeColor=#6c8ebf;strokeWidth=2;fontSize=14;" vertex="1" parent="1">
          <mxGeometry x="444" y="2000" width="116" height="40" as="geometry" />
        </mxCell>
        <mxCell id="qCUGJj3Zq9uQHX7W2p98-57" value="c2:&lt;div style=&quot;font-size: 14px;&quot;&gt;Carpet reference&lt;/div&gt;" style="rounded=0;whiteSpace=wrap;html=1;fillColor=#dae8fc;strokeColor=#6c8ebf;strokeWidth=2;fontSize=14;" vertex="1" parent="1">
          <mxGeometry x="440" y="2160" width="120" height="40" as="geometry" />
        </mxCell>
        <mxCell id="qCUGJj3Zq9uQHX7W2p98-58" value="c3 = null&lt;div&gt;Carpet reference&lt;/div&gt;" style="rounded=0;whiteSpace=wrap;html=1;fillColor=#dae8fc;strokeColor=#6c8ebf;strokeWidth=2;fontSize=14;" vertex="1" parent="1">
          <mxGeometry x="440" y="2320" width="120" height="40" as="geometry" />
        </mxCell>
        <mxCell id="qCUGJj3Zq9uQHX7W2p98-59" value="length = 5" style="rounded=0;whiteSpace=wrap;html=1;fillColor=#d5e8d4;strokeColor=#82b366;strokeWidth=2;fontSize=14;" vertex="1" parent="1">
          <mxGeometry x="680" y="2000" width="120" height="40" as="geometry" />
        </mxCell>
        <mxCell id="qCUGJj3Zq9uQHX7W2p98-60" value="breadth = 5" style="rounded=0;whiteSpace=wrap;html=1;fillColor=#d5e8d4;strokeColor=#82b366;strokeWidth=2;fontSize=14;" vertex="1" parent="1">
          <mxGeometry x="680" y="2040" width="120" height="40" as="geometry" />
        </mxCell>
        <mxCell id="qCUGJj3Zq9uQHX7W2p98-61" value="" style="endArrow=classic;html=1;rounded=0;entryX=0;entryY=0.5;entryDx=0;entryDy=0;strokeWidth=2;fontSize=14;" edge="1" parent="1" target="qCUGJj3Zq9uQHX7W2p98-59">
          <mxGeometry width="50" height="50" relative="1" as="geometry">
            <mxPoint x="550" y="2020" as="sourcePoint" />
            <mxPoint x="600" y="1970" as="targetPoint" />
          </mxGeometry>
        </mxCell>
        <mxCell id="qCUGJj3Zq9uQHX7W2p98-62" value="" style="endArrow=classic;html=1;rounded=0;entryX=0;entryY=0.5;entryDx=0;entryDy=0;strokeWidth=2;fontSize=14;" edge="1" parent="1" target="qCUGJj3Zq9uQHX7W2p98-64">
          <mxGeometry width="50" height="50" relative="1" as="geometry">
            <mxPoint x="550" y="2179.5" as="sourcePoint" />
            <mxPoint x="680" y="2179.5" as="targetPoint" />
          </mxGeometry>
        </mxCell>
        <mxCell id="qCUGJj3Zq9uQHX7W2p98-64" value="length = 10" style="rounded=0;whiteSpace=wrap;html=1;fillColor=#d5e8d4;strokeColor=#82b366;strokeWidth=2;fontSize=14;" vertex="1" parent="1">
          <mxGeometry x="680" y="2160" width="120" height="40" as="geometry" />
        </mxCell>
        <mxCell id="qCUGJj3Zq9uQHX7W2p98-65" value="breadth = 20" style="rounded=0;whiteSpace=wrap;html=1;fillColor=#d5e8d4;strokeColor=#82b366;strokeWidth=2;fontSize=14;" vertex="1" parent="1">
          <mxGeometry x="680" y="2200" width="120" height="40" as="geometry" />
        </mxCell>
        <mxCell id="qCUGJj3Zq9uQHX7W2p98-66" value="&lt;span style=&quot;color: rgb(0, 0, 0); font-family: Helvetica; font-size: 14px; font-style: normal; font-variant-ligatures: normal; font-variant-caps: normal; font-weight: 400; letter-spacing: normal; orphans: 2; text-align: center; text-indent: 0px; text-transform: none; widows: 2; word-spacing: 0px; -webkit-text-stroke-width: 0px; white-space: normal; background-color: rgb(251, 251, 251); text-decoration-thickness: initial; text-decoration-style: initial; text-decoration-color: initial; display: inline !important; float: none;&quot;&gt;Carpet instance&lt;/span&gt;" style="text;whiteSpace=wrap;html=1;fillColor=#f8cecc;strokeColor=none;fillStyle=solid;" vertex="1" parent="1">
          <mxGeometry x="690" y="120" width="130" height="40" as="geometry" />
        </mxCell>
        <mxCell id="qCUGJj3Zq9uQHX7W2p98-67" value="&lt;meta charset=&quot;utf-8&quot;&gt;&lt;span style=&quot;color: rgb(0, 0, 0); font-family: Helvetica; font-size: 14px; font-style: normal; font-variant-ligatures: normal; font-variant-caps: normal; font-weight: 400; letter-spacing: normal; orphans: 2; text-align: center; text-indent: 0px; text-transform: none; widows: 2; word-spacing: 0px; -webkit-text-stroke-width: 0px; white-space: normal; background-color: rgb(251, 251, 251); text-decoration-thickness: initial; text-decoration-style: initial; text-decoration-color: initial; display: inline !important; float: none;&quot;&gt;Carpet instance&lt;/span&gt;" style="text;whiteSpace=wrap;html=1;" vertex="1" parent="1">
          <mxGeometry x="690" y="280" width="130" height="40" as="geometry" />
        </mxCell>
        <mxCell id="qCUGJj3Zq9uQHX7W2p98-68" value="&lt;meta charset=&quot;utf-8&quot;&gt;&lt;span style=&quot;color: rgb(0, 0, 0); font-family: Helvetica; font-size: 14px; font-style: normal; font-variant-ligatures: normal; font-variant-caps: normal; font-weight: 400; letter-spacing: normal; orphans: 2; text-align: center; text-indent: 0px; text-transform: none; widows: 2; word-spacing: 0px; -webkit-text-stroke-width: 0px; white-space: normal; background-color: rgb(251, 251, 251); text-decoration-thickness: initial; text-decoration-style: initial; text-decoration-color: initial; display: inline !important; float: none;&quot;&gt;Carpet instance&lt;/span&gt;" style="text;whiteSpace=wrap;html=1;" vertex="1" parent="1">
          <mxGeometry x="690" y="440" width="130" height="40" as="geometry" />
        </mxCell>
        <mxCell id="qCUGJj3Zq9uQHX7W2p98-69" value="&lt;meta charset=&quot;utf-8&quot;&gt;&lt;span style=&quot;color: rgb(0, 0, 0); font-family: Helvetica; font-size: 14px; font-style: normal; font-variant-ligatures: normal; font-variant-caps: normal; font-weight: 400; letter-spacing: normal; orphans: 2; text-align: center; text-indent: 0px; text-transform: none; widows: 2; word-spacing: 0px; -webkit-text-stroke-width: 0px; white-space: normal; background-color: rgb(251, 251, 251); text-decoration-thickness: initial; text-decoration-style: initial; text-decoration-color: initial; display: inline !important; float: none;&quot;&gt;Carpet instance&lt;/span&gt;" style="text;whiteSpace=wrap;html=1;" vertex="1" parent="1">
          <mxGeometry x="690" y="640" width="130" height="40" as="geometry" />
        </mxCell>
        <mxCell id="qCUGJj3Zq9uQHX7W2p98-70" value="&lt;meta charset=&quot;utf-8&quot;&gt;&lt;span style=&quot;color: rgb(0, 0, 0); font-family: Helvetica; font-size: 14px; font-style: normal; font-variant-ligatures: normal; font-variant-caps: normal; font-weight: 400; letter-spacing: normal; orphans: 2; text-align: center; text-indent: 0px; text-transform: none; widows: 2; word-spacing: 0px; -webkit-text-stroke-width: 0px; white-space: normal; background-color: rgb(251, 251, 251); text-decoration-thickness: initial; text-decoration-style: initial; text-decoration-color: initial; display: inline !important; float: none;&quot;&gt;Carpet instance&lt;/span&gt;" style="text;whiteSpace=wrap;html=1;" vertex="1" parent="1">
          <mxGeometry x="690" y="800" width="130" height="40" as="geometry" />
        </mxCell>
        <mxCell id="qCUGJj3Zq9uQHX7W2p98-71" value="&lt;meta charset=&quot;utf-8&quot;&gt;&lt;span style=&quot;color: rgb(0, 0, 0); font-family: Helvetica; font-size: 14px; font-style: normal; font-variant-ligatures: normal; font-variant-caps: normal; font-weight: 400; letter-spacing: normal; orphans: 2; text-align: center; text-indent: 0px; text-transform: none; widows: 2; word-spacing: 0px; -webkit-text-stroke-width: 0px; white-space: normal; background-color: rgb(251, 251, 251); text-decoration-thickness: initial; text-decoration-style: initial; text-decoration-color: initial; display: inline !important; float: none;&quot;&gt;Carpet instance&lt;/span&gt;" style="text;whiteSpace=wrap;html=1;" vertex="1" parent="1">
          <mxGeometry x="690" y="1120" width="130" height="40" as="geometry" />
        </mxCell>
        <mxCell id="qCUGJj3Zq9uQHX7W2p98-72" value="&lt;meta charset=&quot;utf-8&quot;&gt;&lt;span style=&quot;color: rgb(0, 0, 0); font-family: Helvetica; font-size: 14px; font-style: normal; font-variant-ligatures: normal; font-variant-caps: normal; font-weight: 400; letter-spacing: normal; orphans: 2; text-align: center; text-indent: 0px; text-transform: none; widows: 2; word-spacing: 0px; -webkit-text-stroke-width: 0px; white-space: normal; background-color: rgb(251, 251, 251); text-decoration-thickness: initial; text-decoration-style: initial; text-decoration-color: initial; display: inline !important; float: none;&quot;&gt;Carpet instance&lt;/span&gt;" style="text;whiteSpace=wrap;html=1;" vertex="1" parent="1">
          <mxGeometry x="690" y="1600" width="130" height="40" as="geometry" />
        </mxCell>
        <mxCell id="qCUGJj3Zq9uQHX7W2p98-73" value="&lt;meta charset=&quot;utf-8&quot;&gt;&lt;span style=&quot;color: rgb(0, 0, 0); font-family: Helvetica; font-size: 14px; font-style: normal; font-variant-ligatures: normal; font-variant-caps: normal; font-weight: 400; letter-spacing: normal; orphans: 2; text-align: center; text-indent: 0px; text-transform: none; widows: 2; word-spacing: 0px; -webkit-text-stroke-width: 0px; white-space: normal; background-color: rgb(251, 251, 251); text-decoration-thickness: initial; text-decoration-style: initial; text-decoration-color: initial; display: inline !important; float: none;&quot;&gt;Carpet instance&lt;/span&gt;" style="text;whiteSpace=wrap;html=1;" vertex="1" parent="1">
          <mxGeometry x="690" y="1760" width="130" height="40" as="geometry" />
        </mxCell>
        <mxCell id="qCUGJj3Zq9uQHX7W2p98-74" value="&lt;meta charset=&quot;utf-8&quot;&gt;&lt;span style=&quot;color: rgb(0, 0, 0); font-family: Helvetica; font-size: 14px; font-style: normal; font-variant-ligatures: normal; font-variant-caps: normal; font-weight: 400; letter-spacing: normal; orphans: 2; text-align: center; text-indent: 0px; text-transform: none; widows: 2; word-spacing: 0px; -webkit-text-stroke-width: 0px; white-space: normal; background-color: rgb(251, 251, 251); text-decoration-thickness: initial; text-decoration-style: initial; text-decoration-color: initial; display: inline !important; float: none;&quot;&gt;Carpet instance&lt;/span&gt;" style="text;whiteSpace=wrap;html=1;" vertex="1" parent="1">
          <mxGeometry x="690" y="2080" width="130" height="40" as="geometry" />
        </mxCell>
        <mxCell id="qCUGJj3Zq9uQHX7W2p98-75" value="&lt;meta charset=&quot;utf-8&quot;&gt;&lt;span style=&quot;color: rgb(0, 0, 0); font-family: Helvetica; font-size: 14px; font-style: normal; font-variant-ligatures: normal; font-variant-caps: normal; font-weight: 400; letter-spacing: normal; orphans: 2; text-align: center; text-indent: 0px; text-transform: none; widows: 2; word-spacing: 0px; -webkit-text-stroke-width: 0px; white-space: normal; background-color: rgb(251, 251, 251); text-decoration-thickness: initial; text-decoration-style: initial; text-decoration-color: initial; display: inline !important; float: none;&quot;&gt;Carpet instance&lt;/span&gt;" style="text;whiteSpace=wrap;html=1;" vertex="1" parent="1">
          <mxGeometry x="690" y="2240" width="130" height="40" as="geometry" />
        </mxCell>
        <mxCell id="qCUGJj3Zq9uQHX7W2p98-77" value="&lt;span style=&quot;color: rgb(255, 255, 255); font-family: &amp;quot;Cascadia Mono&amp;quot;, Consolas, ui-monospace, Menlo, Monaco, monospace; font-size: 18px; white-space-collapse: preserve; background-color: rgb(41, 41, 41);&quot;&gt;c3 = null;&lt;/span&gt;" style="text;whiteSpace=wrap;html=1;fontSize=18;" vertex="1" parent="1">
          <mxGeometry x="250" y="2000" width="130" height="40" as="geometry" />
        </mxCell>
      </root>
    </mxGraphModel>
  </diagram>
</mxfile>
